# AST/ASF file generated using VICON BodyLanguage
# -----------------------------------------------
:version 1.10
:name VICON
:units
  mass 1.0
  length 0.45
  angle deg
:documentation
   .ast/.asf automatically generated from VICON data using
   VICON BodyBuilder and BodyLanguage model FoxedUp or BRILLIANT.MOD
:root
   order TX TY TZ RX RY RZ
   axis XYZ
   position 0 0 0  
   orientation 0 0 0 
:bonedata
  begin
     id 1 
     name lhipjoint
     direction 0.521689 -0.742065 0.420928 
     length 2.47002 
     axis 0 0 0  XYZ
  end
  begin
     id 2 
     name lfemur
     direction 0.34202 -0.939693 0  
     length 7.24654  
     axis 0 0 20  XYZ
    dof rx ry rz
    limits (-160.0 20.0)
           (-70.0 70.0)
           (-60.0 70.0)
  end
  begin
     id 3 
     name ltibia
     direction 0.34202 -0.939693 0   
     length 8.04849   
     axis 0 0 20   XYZ
    dof rx
    limits (-10.0 170.0)
  end
  begin
     id 4 
     name lfoot
     direction 0.0745411 -0.2048 0.975961   
     length 1.72367   
     axis -90 7.62852e-016 20   XYZ
    dof rx rz
    limits (-45.0 90.0)
           (-70.0 20.0)
  end
  begin
     id 5 
     name ltoes
     direction 1.53556e-011 -4.21901e-011 1   
     length 0.87311   
     axis -90 7.62852e-016 20   XYZ
    dof rx
    limits (-90.0 20.0)
  end
  begin
     id 6 
     name rhipjoint
     direction -0.52849 -0.738415 0.418857   
     length 2.48223  
     axis 0 0 0  XYZ 
  end
  begin
     id 7 
     name rfemur
     direction -0.34202 -0.939693 0   
     length 7.15571   
     axis 0 0 -20   XYZ
    dof rx ry rz
    limits (-160.0 20.0)
           (-70.0 70.0)
           (-70.0 60.0)
  end
  begin
     id 8 
     name rtibia
     direction -0.34202 -0.939693 0   
     length 7.81659   
     axis 0 0 -20   XYZ
    dof rx
    limits (-10.0 170.0)
 end
 begin
     id 9 
     name rfoot
     direction -0.0917348 -0.252039 0.963359   
     length 1.84382  
     axis -90 -7.62852e-016 -20   XYZ
    dof rx rz
    limits (-45.0 90.0)
           (-20.0 70.0)
  end
  begin
     id 10 
     name rtoes
     direction -1.53551e-011 -4.21879e-011 1   
     length 0.927771   
     axis -90 -7.62852e-016 -20   XYZ
    dof rx
    limits (-90.0 20.0)
  end
  begin
     id 11 
     name lowerback
     direction 0.00583058 0.999822 0.0179296   
     length 2.1429   
     axis 0 0 0   XYZ
    dof rx ry rz
    limits (-20.0 45.0)
           (-30.0 30.0)
           (-30.0 30.0)
  end
  begin
     id 12 
     name upperback
     direction -0.0137999 0.999752 -0.0175071   
     length 2.14252   
     axis 0 0 0   XYZ
    dof rx ry rz
    limits (-20.0 45.0)
           (-30.0 30.0)
           (-30.0 30.0)
  end
  begin
     id 13 
     name thorax
     direction -0.0158036 0.99955 -0.0254909   
     length 2.1383   
     axis 0 0 0   XYZ
    dof rx ry rz
    limits (-20.0 45.0)
           (-30.0 30.0)
           (-30.0 30.0)
  end
  begin
     id 14 
     name lowerneck
     direction -0.0101179 0.999403 -0.0330262   
     length 1.65808   
     axis 0 0 0   XYZ
    dof rx ry rz
    limits (-20.0 45.0)
           (-30.0 30.0)
           (-30.0 30.0)
  end
  begin
     id 15 
     name upperneck
     direction 0.0497734 0.995978 -0.074501   
     length 1.5897   
     axis 0 0 0   XYZ
    dof rx ry rz
    limits (-20.0 45.0)
           (-30.0 30.0)
           (-30.0 30.0)
  end
  begin
     id 16
     name head
     direction 0.0189524 0.999519 -0.0245438  
     length 1.74024  
     axis 0 0 0   XYZ
    dof rx ry rz
    limits (-20.0 45.0)
           (-30.0 30.0)
           (-30.0 30.0)
  end
  begin
     id 17 
     name lclavicle
     direction 0.945604 0.324422 0.0241537  
     length 3.59089  
     axis 0 0 0   XYZ
    dof ry rz
    limits (-20.0 10.0)
           (0.0 20.0)
  end
  begin
     id 18 
     name lhumerus
     direction 1 -4.48964e-011 -2.63524e-027   
     length 5.2391   
     axis 180 -30 -90   XYZ
    dof rx ry rz
    limits (-60.0 90.0)
           (-90.0 90.0)
           (-90.0 90.0)
  end
  begin
     id 19
     name lradius
     direction 1 -4.48969e-011 3.86978e-028   
     length 3.31467   
     axis 180 -30 -90   XYZ
    dof rx
    limits (-10.0 170.0)
  end
  begin
     id 20
     name lwrist
     direction 1 -4.48963e-011 7.20928e-028   
     length 1.65734   
     axis -5.52449e-016 90 90   XYZ
    dof ry
    limits (-180.0 0.0)
 end
  begin
     id 21 
     name lhand
     direction 1 -4.48964e-011 1.44186e-027   
     length 0.9659   
     axis -9.20027e-016 90 90   XYZ
    dof rx rz
    limits (-90.0 90.0)
           (-45.0 45.0)
  end
  begin
     id 22 
     name lfingers
     direction 1 -4.48965e-011 2.88371e-027   
     length 0.778733   
     axis -1.84005e-015 90 90   XYZ
    dof rx
    limits (0.0 90.0)
  end
  begin
     id 23
     name lthumb
     direction 0.707107 -6.34931e-011 0.707107   
     length 1.11811   
     axis -90 45 2.85299e-015   XYZ
    dof rx rz
    limits (-45.0 45.0)
           (-45.0 45.0)
  end
  begin
     id 24 
     name rclavicle
     direction -0.923762 0.370785 0.0958234   
     length 3.54196  
     axis 0 0 0   XYZ 
    dof ry rz
    limits (-10.0 20.0)
           (-20.0 0.0)
  end
  begin
     id 25 
     name rhumerus
     direction -1 -4.48966e-011 1.18702e-017  
     length 5.30252   
     axis 180 30 90   XYZ
    dof rx ry rz
    limits (-90.0 60.0)
           (-90.0 90.0)
           (-90.0 90.0)
  end
  begin
     id 26 
     name rradius
     direction -1 -4.48966e-011 4.46736e-027   
     length 3.67875   
     axis 180 30 90   XYZ
    dof rx
    limits (-10.0 170.0)
  end
  begin
     id 27 
     name rwrist
     direction -1 -4.48966e-011 7.20928e-028   
     length 1.83937   
     axis -5.52449e-016 -90 -90   XYZ
    dof ry
    limits (-180.0 0.0)
  end
  begin
     id 28
     name rhand
     direction -1 -4.48973e-011 1.44186e-027   
     length 0.594811   
     axis -9.20027e-016 -90 -90   XYZ
    dof rx rz
    limits (-90.0 90.0)
           (-45.0 45.0)
  end
  begin
     id 29
     name rfingers
     direction -1 -4.48963e-011 2.88371e-027   
     length 0.479552   
     axis -1.84005e-015 -90 -90   XYZ
    dof rx
    limits (0.0 90.0)
  end
  begin
     id 30
     name rthumb
     direction -0.707107 -6.34932e-011 0.707107   
     length 0.688544   
     axis -90 -45 -2.85299e-015   XYZ
    dof rx rz
    limits (-45.0 45.0)
           (-45.0 45.0)
  end
:hierarchy
  begin
    root lhipjoint rhipjoint lowerback
    lhipjoint lfemur
    lfemur ltibia
    ltibia lfoot
    lfoot ltoes
    rhipjoint rfemur
    rfemur rtibia
    rtibia rfoot
    rfoot rtoes
    lowerback upperback
    upperback thorax
    thorax lowerneck lclavicle rclavicle
    lowerneck upperneck
    upperneck head
    lclavicle lhumerus
    lhumerus lradius
    lradius lwrist
    lwrist lhand lthumb
    lhand lfingers
    rclavicle rhumerus
    rhumerus rradius
    rradius rwrist
    rwrist rhand rthumb
    rhand rfingers
  end

#!OML:ASF E:\acrobat2\Project_11_07_03\Capture day 1\Session 1\Acrobat.ASF
:FULLY-SPECIFIED
:DEGREES
532
root 8.21768 18.016 -29.7877 12.4912 44.7253 3.62598
lowerback 1.98595 1.65943 -2.73405
upperback -0.432985 2.13034 -1.0451
thorax -1.61691 1.08636 0.386792
lowerneck 2.00348 -11.1292 -4.37865
upperneck -3.326 -14.7206 11.3032
head -0.136846 -7.46999 4.40898
rclavicle 9.20621e-015 1.59028e-015
rhumerus -40.2763 -1.87669 -84.2651
rradius 24.5269
rwrist 2.94041
rhand -4.7513 -42.0199
rfingers 7.12502
rthumb 21.0324 -70.8994
lclavicle 9.20621e-015 1.59028e-015
lhumerus -28.0202 -13.1585 82.4538
lradius 19.4181
lwrist 10.2616
lhand -12.8621 -11.2704
lfingers 7.12502
lthumb 13.2261 18.29
rfemur -28.9227 -17.2347 10.613
rtibia 40.0206
rfoot -20.0196 -13.5081
rtoes 1.77972
lfemur -2.902 -5.65396 -13.2523
ltibia 6.35301
lfoot -13.568 -16.0073
ltoes 36.23
533
root 8.20636 17.9993 -29.7045 12.9946 44.9546 3.92912
lowerback 2.09266 1.65254 -2.7972
upperback -0.408218 2.11556 -1.09448
thorax -1.65141 1.07959 0.36908
lowerneck 1.9631 -11.3077 -4.32796
upperneck -3.32399 -14.9553 11.491
head -0.0965238 -7.58883 4.45277
rclavicle 8.15638e-015 5.46658e-016
rhumerus -40.0702 -1.85884 -84.2651
rradius 24.5598
rwrist 2.74984
rhand -5.31626 -41.7739
rfingers 7.12502
rthumb 20.4895 -70.7128
lclavicle 8.15638e-015 5.46658e-016
lhumerus -28.2192 -13.728 82.4701
lradius 19.4568
lwrist 10.6723
lhand -12.9291 -11.1868
lfingers 7.12502
lthumb 13.1615 18.3778
rfemur -29.7032 -17.2422 10.5055
rtibia 40.1549
rfoot -19.8475 -13.4113
rtoes 1.10005
lfemur -2.99983 -5.97824 -13.2126
ltibia 6.19982
lfoot -13.754 -15.8842
ltoes 36.5254
534
root 8.19426 17.9845 -29.6138 13.4001 45.1052 4.24998
lowerback 2.23921 1.71834 -2.925
upperback -0.323157 2.19551 -1.15707
thorax -1.65093 1.11985 0.370141
lowerneck 2.18273 -11.3244 -4.27105
upperneck -3.82817 -14.9337 11.7134
head -0.286221 -7.5988 4.55885
rclavicle -6.00081e-015 -6.60959e-015
rhumerus -39.7619 -2.15035 -84.1492
rradius 24.5137
rwrist 2.66996
rhand -5.66606 -41.4367
rfingers 7.12502
rthumb 20.1533 -70.4113
lclavicle -6.00081e-015 -6.60959e-015
lhumerus -28.3998 -14.533 82.5541
lradius 19.5136
lwrist 11.2215
lhand -13.18 -10.7984
lfingers 7.12502
lthumb 12.9197 18.7817
rfemur -30.3362 -17.1086 10.3309
rtibia 40.3706
rfoot -20.2692 -13.2982
rtoes 0.274534
lfemur -2.90271 -6.00455 -13.1485
ltibia 5.98768
lfoot -13.8469 -15.7819
ltoes 35.81
535
root 8.18288 17.9682 -29.5253 13.7793 45.2337 4.49598
lowerback 2.4013 1.69978 -2.91142
upperback -0.240586 2.16623 -1.20522
thorax -1.65384 1.10434 0.310837
lowerneck 2.41158 -11.1924 -4.27078
upperneck -4.50214 -14.7015 11.8539
head -0.554992 -7.50627 4.6637
rclavicle -3.87257e-014 9.93923e-015
rhumerus -39.2979 -2.09531 -84.1424
rradius 24.3187
rwrist 2.93096
rhand -5.3889 -41.3686
rfingers 7.12502
rthumb 20.4197 -70.3149
lclavicle -3.87257e-014 9.93923e-015
lhumerus -28.317 -14.3317 82.242
lradius 19.1542
lwrist 10.9507
lhand -13.0333 -10.9824
lfingers 7.12502
lthumb 13.0611 18.5887
rfemur -30.988 -16.8734 10.1371
rtibia 39.6412
rfoot -20.6214 -13.2314
rtoes 4.80602
lfemur -2.86297 -5.93556 -13.0328
ltibia 5.85401
lfoot -14.0911 -15.5817
ltoes 33.8323
536
root 8.17239 17.9483 -29.439 14.3584 45.3999 4.89668
lowerback 2.42621 1.62682 -3.04106
upperback -0.137847 2.06706 -1.2085
thorax -1.56409 1.05423 0.385101
lowerneck 2.39489 -11.2057 -4.16533
upperneck -4.90109 -14.6849 11.7814
head -0.698229 -7.50681 4.63947
rclavicle -3.1408e-014 3.30976e-014
rhumerus -38.7951 -1.6836 -84.1659
rradius 24.1258
rwrist 3.17012
rhand -5.14244 -41.4193
rfingers 7.12502
rthumb 20.6565 -70.3401
lclavicle -3.1408e-014 3.30976e-014
lhumerus -28.1758 -13.8367 81.9412
lradius 18.7373
lwrist 10.3628
lhand -12.8395 -11.2929
lfingers 7.12502
lthumb 13.2479 18.2661
rfemur -31.9574 -17.3844 10.2311
rtibia 40.3462
rfoot -20.0811 -14.0439
rtoes -5.60945
lfemur -2.96619 -5.84899 -13.0448
ltibia 5.74245
lfoot -14.1604 -15.4239
ltoes 32.1171
537
root 8.15994 17.9247 -29.3438 14.9989 45.6191 5.35941
lowerback 2.40898 1.61143 -3.28303
upperback -0.0577942 2.04288 -1.20933
thorax -1.48004 1.04247 0.522245
lowerneck 2.34083 -11.4439 -3.97674
upperneck -5.06237 -14.9825 11.8027
head -0.728337 -7.66116 4.60956
rclavicle -4.63168e-014 2.48481e-015
rhumerus -38.5403 -1.53324 -84.1106
rradius 24.1916
rwrist 3.12855
rhand -5.00432 -41.6633
rfingers 7.12502
rthumb 20.7893 -70.5696
lclavicle -4.63168e-014 2.48481e-015
lhumerus -28.2126 -13.883 81.8636
lradius 18.5039
lwrist 10.137
lhand -12.7965 -11.0204
lfingers 7.12502
lthumb 13.2894 18.5359
rfemur -32.6492 -17.254 9.85838
rtibia 39.6659
rfoot -20.576 -14.1074
rtoes -2.41849
lfemur -3.07432 -5.35825 -13.0194
ltibia 5.57447
lfoot -13.7162 -15.626
ltoes 31.2629
538
root 8.14521 17.8977 -29.2435 15.5372 45.7978 5.63242
lowerback 2.45276 1.59931 -3.33785
upperback -0.0547736 2.02325 -1.21956
thorax -1.50237 1.03334 0.541829
lowerneck 2.24836 -11.5455 -3.822
upperneck -5.1395 -15.1082 11.6976
head -0.74769 -7.72401 4.54065
rclavicle -6.01572e-014 1.09332e-014
rhumerus -38.3979 -1.47912 -84.1145
rradius 24.3459
rwrist 2.92275
rhand -4.9932 -41.7805
rfingers 7.12502
rthumb 20.7999 -70.6857
lclavicle -6.01572e-014 1.09332e-014
lhumerus -28.3257 -13.874 81.7088
lradius 18.2286
lwrist 9.85859
lhand -12.7329 -10.5489
lfingers 7.12502
lthumb 13.3507 19.0034
rfemur -33.5466 -17.3303 9.84397
rtibia 39.755
rfoot -21.6793 -14.4755
rtoes 0.420192
lfemur -3.23197 -4.93017 -12.8298
ltibia 5.45786
lfoot -13.2596 -16.0033
ltoes 31.9072
539
root 8.13473 17.8704 -29.1441 15.9947 45.864 5.79331
lowerback 2.50935 1.48481 -3.30555
upperback -0.136644 1.86745 -1.13283
thorax -1.61467 0.957588 0.615878
lowerneck 2.50769 -11.4491 -4.05164
upperneck -5.4896 -14.9693 11.6179
head -0.908597 -7.66429 4.59543
rclavicle -1.4561e-014 1.59028e-015
rhumerus -38.2398 -0.916518 -84.172
rradius 24.3868
rwrist 2.76985
rhand -5.1171 -41.5152
rfingers 7.12502
rthumb 20.6809 -70.4333
lclavicle -1.4561e-014 1.59028e-015
lhumerus -28.6275 -13.2595 81.5189
lradius 17.8416
lwrist 9.19949
lhand -12.8476 -10.3264
lfingers 7.12502
lthumb 13.2401 19.2331
rfemur -34.5244 -17.3916 9.93804
rtibia 39.8616
rfoot -21.3279 -15.1311
rtoes 1.39745
lfemur -3.35268 -5.09718 -12.6292
ltibia 5.39368
lfoot -13.3873 -16.1118
ltoes 32.8581
540
root 8.12647 17.8478 -29.0345 16.2295 45.921 5.92329
lowerback 2.66347 1.24116 -3.47703
upperback -0.258212 1.53094 -0.807056
thorax -1.82762 0.796073 1.0543
lowerneck 3.5244 -11.0856 -4.81647
upperneck -6.27955 -14.4847 11.6048
head -1.33549 -7.44896 4.85987
rclavicle -6.78353e-014 -2.14687e-014
rhumerus -38.2075 0.362098 -84.1594
rradius 24.4173
rwrist 2.65038
rhand -5.1818 -41.457
rfingers 7.12502
rthumb 20.6187 -70.3819
lclavicle -6.78353e-014 -2.14687e-014
lhumerus -29.1957 -11.8559 81.4139
lradius 17.3354
lwrist 8.26539
lhand -13.0989 -9.93052
lfingers 7.12502
lthumb 12.9979 19.6446
rfemur -35.1471 -17.4679 10.0402
rtibia 39.9162
rfoot -22.2387 -15.712
rtoes 2.08497
lfemur -3.14955 -5.24185 -12.4047
ltibia 5.22597
lfoot -13.4857 -16.1242
ltoes 33.1407
541
root 8.11641 17.8233 -28.9193 16.5058 45.9991 6.1424
lowerback 2.77146 1.26989 -3.51187
upperback -0.156303 1.56591 -0.811175
thorax -1.78584 0.812141 1.06696
lowerneck 3.44018 -11.2062 -5.0362
upperneck -6.18457 -14.6145 12.6185
head -1.05328 -7.5431 4.68666
rclavicle 1.4561e-014 1.82882e-014
rhumerus -37.7951 0.474189 -84.2108
rradius 24.3072
rwrist 2.72039
rhand -5.31562 -41.5821
rfingers 7.12502
rthumb 20.4901 -70.5209
lclavicle 1.4561e-014 1.82882e-014
lhumerus -29.0902 -11.7979 81.2211
lradius 16.8146
lwrist 7.91666
lhand -12.4123 -11.3109
lfingers 7.12502
lthumb 13.6596 18.2209
rfemur -35.7349 -17.6158 10.0761
rtibia 39.9639
rfoot -22.2459 -16.1855
rtoes 2.0723
lfemur -2.93096 -5.19017 -12.2311
ltibia 5.02954
lfoot -13.4493 -16.0917
ltoes 33.0852
542
root 8.10775 17.7903 -28.8113 17.2019 46.1031 6.62261
lowerback 2.693 1.20263 -3.61735
upperback -0.140751 1.47668 -0.84095
thorax -1.72376 0.767502 1.10139
lowerneck 3.58709 -11.1724 -5.20311
upperneck -6.56184 -14.5376 12.9331
head -1.15725 -7.52255 4.82762
rclavicle 9.96905e-014 -1.19271e-014
rhumerus -37.4495 0.861068 -84.3549
rradius 24.1942
rwrist 2.83175
rhand -5.39748 -41.5916
rfingers 7.12502
rthumb 20.4115 -70.5388
lclavicle 9.96905e-014 -1.19271e-014
lhumerus -29.0485 -11.4672 81.0471
lradius 16.3183
lwrist 7.59426
lhand -12.4542 -11.243
lfingers 7.12502
lthumb 13.6192 18.2914
rfemur -36.7449 -18.0919 10.0318
rtibia 40.2576
rfoot -22.8013 -16.8079
rtoes 1.05256
lfemur -3.07879 -5.30457 -12.2779
ltibia 4.96487
lfoot -13.4494 -16.0574
ltoes 34.0112
543
root 8.10084 17.7567 -28.6991 17.9105 46.1531 7.1537
lowerback 2.69854 1.1691 -3.73424
upperback -0.184197 1.42626 -0.892894
thorax -1.77081 0.744551 1.11489
lowerneck 3.64371 -11.0428 -5.14696
upperneck -6.88073 -14.3491 12.6338
head -1.30523 -7.43009 4.7554
rclavicle -7.94145e-014 1.35174e-014
rhumerus -37.3283 1.02703 -84.395
rradius 24.2585
rwrist 3.15588
rhand -5.48051 -41.5308
rfingers 7.12502
rthumb 20.3317 -70.4866
lclavicle -7.94145e-014 1.35174e-014
lhumerus -29.169 -11.2979 80.9549
lradius 15.9617
lwrist 7.2492
lhand -12.6594 -10.4805
lfingers 7.12502
lthumb 13.4215 19.0671
rfemur -37.6859 -18.447 9.8923
rtibia 40.5126
rfoot -23.5083 -17.3701
rtoes 1.17608
lfemur -3.19256 -5.50873 -12.3787
ltibia 4.94756
lfoot -13.2714 -16.2095
ltoes 36.1308
544
root 8.09428 17.7254 -28.5756 18.3114 46.1107 7.468
lowerback 2.82935 1.126 -3.83097
upperback -0.196002 1.35961 -0.839731
thorax -1.85685 0.713865 1.22365
lowerneck 3.55311 -11.0066 -5.27752
upperneck -6.96126 -14.3073 12.5133
head -1.3178 -7.40228 4.73769
rclavicle -1.2921e-015 -7.55382e-015
rhumerus -37.1334 1.41748 -84.3809
rradius 24.3633
rwrist 3.27847
rhand -5.77367 -41.4632
rfingers 7.12502
rthumb 20.0499 -70.4487
lclavicle -1.2921e-015 -7.55382e-015
lhumerus -29.3694 -10.9054 80.8524
lradius 15.6469
lwrist 6.76691
lhand -12.6182 -10.1
lfingers 7.12502
lthumb 13.4612 19.445
rfemur -38.4307 -18.5915 9.895
rtibia 40.8216
rfoot -24.1616 -17.7242
rtoes 1.58429
lfemur -3.04689 -5.70853 -12.3069
ltibia 4.89481
lfoot -13.4346 -16.1959
ltoes 36.5889
545
root 8.08635 17.6937 -28.4475 18.5903 46.0915 7.73955
lowerback 3.01278 1.0747 -3.88834
upperback -0.180566 1.28121 -0.800016
thorax -1.94223 0.67664 1.29682
lowerneck 3.48363 -11.0133 -5.55021
upperneck -6.94586 -14.3237 12.7222
head -1.26379 -7.40836 4.83062
rclavicle 7.35503e-015 -1.82882e-014
rhumerus -36.9911 1.89211 -84.4552
rradius 24.5174
rwrist 3.1371
rhand -6.01326 -41.4726
rfingers 7.12502
rthumb 19.8196 -70.482
lclavicle 7.35503e-015 -1.82882e-014
lhumerus -29.5677 -10.6044 80.7036
lradius 15.3029
lwrist 6.48445
lhand -12.4215 -10.2175
lfingers 7.12502
lthumb 13.6508 19.3149
rfemur -39.0815 -18.8283 9.98161
rtibia 41.2133
rfoot -24.8374 -18.2577
rtoes 1.12267
lfemur -2.78374 -5.96689 -12.1925
ltibia 4.80551
lfoot -13.8584 -15.9443
ltoes 35.8077
